<?xml version="1.0" standalone="no"?>
<!DOCTYPE svg PUBLIC "-//W3C//DTD SVG 20010904//EN"
 "http://www.w3.org/TR/2001/REC-SVG-20010904/DTD/svg10.dtd">
<svg version="1.0" xmlns="http://www.w3.org/2000/svg"
 width="282.000000pt" height="282.000000pt" viewBox="0 0 282.000000 282.000000"
 preserveAspectRatio="xMidYMid meet">
<metadata>
Created by potrace 1.11, written by Peter Selinger 2001-2013
</metadata>
<g transform="translate(0.000000,282.000000) scale(0.100000,-0.100000)"
fill="#000000" stroke="none">
<path d="M1671 2748 c-122 -21 -171 -37 -273 -88 -278 -140 -465 -393 -523
-710 -4 -19 -8 -78 -10 -131 -5 -193 44 -368 156 -551 39 -65 20 -108 -26 -58
-10 11 -28 20 -39 20 -15 0 -156 -135 -457 -438 -387 -389 -437 -442 -449
-482 -27 -96 -3 -189 65 -249 50 -44 73 -51 162 -51 63 0 83 4 117 24 60 36
876 859 876 883 0 11 -11 30 -25 43 -23 22 -24 25 -9 41 15 17 19 16 69 -16
168 -108 349 -157 553 -152 291 8 541 131 724 354 233 286 283 683 127 1018
-184 395 -611 619 -1038 543z m330 -93 c216 -46 385 -148 521 -315 65 -80 147
-251 163 -340 3 -14 9 -47 14 -75 14 -75 5 -249 -18 -341 -39 -156 -113 -288
-225 -400 -81 -80 -130 -116 -234 -168 -123 -64 -237 -90 -387 -91 -110 0
-171 8 -261 36 -413 126 -671 535 -607 963 16 108 34 167 81 261 123 249 348
420 617 470 97 18 250 18 336 0z m-852 -1543 c31 -31 37 -42 29 -56 -9 -16
-15 -14 -54 25 -33 33 -41 46 -32 56 14 18 14 18 57 -25z m-28 -245 l-51 -52
-110 110 -110 110 52 51 52 51 109 -109 110 -110 -52 -51z m-213 -3 l106 -105
-325 -325 c-178 -179 -337 -332 -353 -341 -38 -20 -118 -13 -154 14 -42 31
-71 90 -66 136 2 22 9 46 15 53 6 8 8 14 3 14 -11 0 648 660 660 660 5 0 56
-47 114 -106z"/>
<path d="M1757 2594 c-1 -2 -24 -5 -51 -9 -112 -13 -269 -84 -371 -168 -122
-100 -224 -261 -266 -422 -30 -111 -30 -288 0 -399 65 -243 231 -436 461 -535
350 -150 764 -12 969 323 44 71 82 171 101 261 14 67 21 225 10 225 -4 0 -6
12 -4 26 2 24 -25 138 -48 199 -13 33 -86 163 -102 182 -6 6 -31 35 -55 62
-127 148 -349 250 -553 255 -49 1 -90 1 -91 0z m226 -108 c145 -34 305 -138
391 -254 98 -134 145 -282 141 -448 -3 -113 -4 -118 -28 -200 -108 -363 -503
-574 -862 -460 -333 106 -537 443 -478 792 30 183 128 343 276 452 42 31 127
77 152 82 3 0 20 7 39 15 18 8 49 17 67 20 18 3 35 8 38 10 6 7 231 -1 264 -9z"/>
<path d="M1718 2378 c-2 -13 -3 -121 -2 -240 l1 -218 -244 0 c-187 0 -243 -3
-244 -12 -6 -67 -2 -221 6 -226 6 -4 116 -7 245 -7 l235 0 0 -215 c1 -118 4
-219 7 -225 3 -6 54 -10 120 -9 l113 0 5 225 5 224 238 0 c130 0 237 2 238 5
1 3 2 58 3 123 l1 117 -242 0 -243 0 -2 238 -3 237 -116 3 c-114 3 -117 2
-121 -20z"/>
</g>
</svg>
